# xmcd
#
# Track frame offsets:
#	150
#	20628
#	35192
#	50049
#	73457
#	86638
#	110665
#	132575
#	162036
#	189729
#
# Disc length: 2803 seconds
#
# Revision: 0
# Processed by: cddbd v1.5.1PL0 Copyright (c) Steve Scherf et al.
# Submitted via: dBpowerAMP V4.0
#
DISCID=9c0af10a
DTITLE=Various Artist - Las Damas del Blues
DYEAR=1900
DGENRE=Blues
TTITLE0=63 Year Old Mama (Koko Taylor)
TTITLE1=A Fool for You (Valerie Wellington)
TTITLE2=Music Makin Mama (Ann Rabson)
TTITLE3=Coffee Break (Sweet Betty con Bob Margolin)
TTITLE4=Tired of Being Pushed Around (Queen Sylvia Embry)
TTITLE5=These Arm of Mine (Kanika Kress con Roy Buchanan)
TTITLE6=Dont  I do It (Saffire-The  Uppity Blues Woman)
TTITLE7=ZydecoShoes and California Blues (Katie Webster)
TTITLE8=Why Dont  You Want Me (Gloria Hardiman con Roy Buchanan)
TTITLE9=Meet Me With You Black Drawers On (Gloria Hardiman con Prof Blues Review)
EXTD=jose
EXTT0=
EXTT1=
EXTT2=
EXTT3=
EXTT4=
EXTT5=
EXTT6=
EXTT7=
EXTT8=
EXTT9=
PLAYORDER=
